{"asset":{"version":"2.0","generator":"babylon.js glTF exporter for Maya 2018 v20200408.2"},"scene":0,"scenes":[{"nodes":[0,1,2,3,4,5,6,7,8]}],"nodes":[{"skin":0,"mesh":0,"name":"meia_e","extras":{"currentUVSet":"map1"}},{"skin":1,"mesh":1,"name":"meia_d","extras":{"currentUVSet":"map1"}},{"skin":2,"mesh":2,"name":"calca","extras":{"currentUVSet":"map1"}},{"skin":3,"mesh":3,"name":"perna_d","extras":{"currentUVSet":"map1"}},{"skin":4,"mesh":4,"name":"perna_e","extras":{"currentUVSet":"map1"}},{"skin":5,"mesh":5,"name":"tenis_e","extras":{"currentUVSet":"map1"}},{"skin":6,"mesh":6,"name":"tenis_d","extras":{"currentUVSet":"map1"}},{"mesh":7,"translation":[0.0,-0.00234946981,-0.2590952],"scale":[246.4092,104.445236,104.445236],"name":"pPlane1","extras":{"currentUVSet":"map1"}},{"children":[9,15],"translation":[-0.000294288475,0.2494349,-0.0374021],"name":"pelvis"},{"children":[10],"translation":[0.0228230134,-0.00652633654,-0.00684809964],"rotation":[-0.6952611,0.684928358,0.0680002,-0.2070292],"name":"L_coxa"},{"children":[11,14],"translation":[0.1408693,8.881784E-18,6.255854E-17],"rotation":[-0.957697868,0.287775576,1.76211722E-17,-5.864208E-17],"scale":[1.0,0.99999994,1.0],"name":"L_joelho"},{"children":[12],"translation":[0.115670271,-2.6645352E-17,-3.58530749E-17],"rotation":[0.5444145,-0.833090365,-0.08940631,0.03974653],"scale":[1.0,1.0,1.00000012],"name":"L_tornozelo"},{"children":[13],"translation":[0.0366239361,-4.77395875E-17,2.463066E-17],"rotation":[0.0,0.0,0.219960749,0.9755087],"scale":[0.99999994,0.99999994,1.0],"name":"L_centro_pe"},{"translation":[0.030437313,8.881784E-18,2.775174E-17],"rotation":[0.104642294,0.6993211,-0.1046423,0.699321151],"scale":[1.0,0.99999994,1.0],"name":"L_ponta_pe"},{"translation":[-0.0140681919,-0.0169046447,0.0115430951],"rotation":[0.465427458,-0.5323319,0.465427458,0.532331944],"scale":[0.99999994,0.99999994,0.99999994],"name":"L_calca"},{"children":[16],"translation":[-0.0228230115,-0.0065267114,-0.00684809871],"rotation":[-0.100980967,0.005361895,0.7149844,0.691788554],"scale":[0.99999994,0.99999994,1.0],"name":"R_coxa"},{"children":[17,20],"translation":[-0.140869141,-2.52984442E-08,-9.325873E-17],"rotation":[-0.950359762,0.311153233,-1.905264E-17,5.819275E-17],"name":"R_joelho"},{"children":[18],"translation":[-0.115670055,-4.929563E-09,5.3290704E-17],"rotation":[0.532904744,-0.842941165,-0.0681991354,0.0284891855],"scale":[1.0,1.0,1.00000012],"name":"R_tornozelo"},{"children":[19],"translation":[-0.03662391,1.21634054E-08,-2.6645352E-17],"rotation":[0.0,0.0,0.219960749,0.9755087],"scale":[0.99999994,0.99999994,1.0],"name":"R_centro_pe"},{"translation":[-0.0304372683,1.38551419E-08,-8.881784E-18],"rotation":[0.104642294,0.6993211,-0.1046423,0.699321151],"scale":[1.0,0.99999994,1.0],"name":"R_ponta_pe"},{"translation":[0.0179181229,0.0126782553,-0.0280586686],"rotation":[0.465427458,-0.5323319,0.465427458,0.532331944],"scale":[0.99999994,0.99999994,0.99999994],"name":"R_calca"}],"meshes":[{"primitives":[{"attributes":{"POSITION":1,"TANGENT":2,"NORMAL":3,"TEXCOORD_0":4,"JOINTS_0":5,"WEIGHTS_0":6},"indices":0,"material":0}],"name":"meia_e"},{"primitives":[{"attributes":{"POSITION":8,"TANGENT":9,"NORMAL":10,"TEXCOORD_0":11,"JOINTS_0":12,"WEIGHTS_0":13},"indices":7,"material":0}],"name":"meia_d"},{"primitives":[{"attributes":{"POSITION":15,"TANGENT":16,"NORMAL":17,"TEXCOORD_0":18,"JOINTS_0":19,"WEIGHTS_0":20},"indices":14,"material":0}],"name":"calca"},{"primitives":[{"attributes":{"POSITION":22,"TANGENT":23,"NORMAL":24,"TEXCOORD_0":25,"JOINTS_0":26,"WEIGHTS_0":27},"indices":21,"material":0}],"name":"perna_d"},{"primitives":[{"attributes":{"POSITION":29,"TANGENT":30,"NORMAL":31,"TEXCOORD_0":32,"JOINTS_0":33,"WEIGHTS_0":34},"indices":28,"material":0}],"name":"perna_e"},{"primitives":[{"attributes":{"POSITION":36,"TANGENT":37,"NORMAL":38,"TEXCOORD_0":39,"JOINTS_0":40,"WEIGHTS_0":41},"indices":35,"material":1}],"name":"tenis_e"},{"primitives":[{"attributes":{"POSITION":43,"TANGENT":44,"NORMAL":45,"TEXCOORD_0":46,"JOINTS_0":47,"WEIGHTS_0":48},"indices":42,"material":1}],"name":"tenis_d"},{"primitives":[{"attributes":{"POSITION":50,"TANGENT":51,"NORMAL":52,"TEXCOORD_0":53},"indices":49,"material":2}],"name":"pPlane1"}],"accessors":[{"bufferView":0,"componentType":5123,"count":3648,"type":"SCALAR","name":"accessorIndices"},{"bufferView":1,"componentType":5126,"count":745,"max":[0.101880789,0.06791112,0.008362214],"min":[0.0332358032,0.00458863,-0.03766515],"type":"VEC3","name":"accessorPositions"},{"bufferView":2,"componentType":5126,"count":745,"type":"VEC4","name":"accessorTangents"},{"bufferView":1,"byteOffset":8940,"componentType":5126,"count":745,"type":"VEC3","name":"accessorNormals"},{"bufferView":3,"componentType":5126,"count":745,"type":"VEC2","name":"accessorUVs"},{"bufferView":4,"componentType":5123,"count":745,"type":"VEC4","name":"accessorJoints"},{"bufferView":2,"byteOffset":11920,"componentType":5126,"count":745,"type":"VEC4","name":"accessorWeights"},{"bufferView":0,"byteOffset":7296,"componentType":5123,"count":3648,"type":"SCALAR","name":"accessorIndices"},{"bufferView":1,"byteOffset":17880,"componentType":5126,"count":745,"max":[-0.0212603156,0.0676128,0.002886219],"min":[-0.09362515,0.00475916127,-0.037262287],"type":"VEC3","name":"accessorPositions"},{"bufferView":2,"byteOffset":23840,"componentType":5126,"count":745,"type":"VEC4","name":"accessorTangents"},{"bufferView":1,"byteOffset":26820,"componentType":5126,"count":745,"type":"VEC3","name":"accessorNormals"},{"bufferView":3,"byteOffset":5960,"componentType":5126,"count":745,"type":"VEC2","name":"accessorUVs"},{"bufferView":4,"byteOffset":5960,"componentType":5123,"count":745,"type":"VEC4","name":"accessorJoints"},{"bufferView":2,"byteOffset":35760,"componentType":5126,"count":745,"type":"VEC4","name":"accessorWeights"},{"bufferView":0,"byteOffset":14592,"componentType":5123,"count":22104,"type":"SCALAR","name":"accessorIndices"},{"bufferView":1,"byteOffset":35760,"componentType":5126,"count":4055,"max":[0.0634840652,0.248399913,0.0136510329],"min":[-0.0544244573,0.07268863,-0.0597790368],"type":"VEC3","name":"accessorPositions"},{"bufferView":2,"byteOffset":47680,"componentType":5126,"count":4055,"type":"VEC4","name":"accessorTangents"},{"bufferView":1,"byteOffset":84420,"componentType":5126,"count":4055,"type":"VEC3","name":"accessorNormals"},{"bufferView":3,"byteOffset":11920,"componentType":5126,"count":4055,"type":"VEC2","name":"accessorUVs"},{"bufferView":4,"byteOffset":11920,"componentType":5123,"count":4055,"type":"VEC4","name":"accessorJoints"},{"bufferView":2,"byteOffset":112560,"componentType":5126,"count":4055,"type":"VEC4","name":"accessorWeights"},{"bufferView":0,"byteOffset":58800,"componentType":5123,"count":960,"type":"SCALAR","name":"accessorIndices"},{"bufferView":1,"byteOffset":133080,"componentType":5126,"count":189,"max":[-0.0156110022,0.121351488,-0.0109678],"min":[-0.07736054,0.0259916056,-0.0371411368],"type":"VEC3","name":"accessorPositions"},{"bufferView":2,"byteOffset":177440,"componentType":5126,"count":189,"type":"VEC4","name":"accessorTangents"},{"bufferView":1,"byteOffset":135348,"componentType":5126,"count":189,"type":"VEC3","name":"accessorNormals"},{"bufferView":3,"byteOffset":44360,"componentType":5126,"count":189,"type":"VEC2","name":"accessorUVs"},{"bufferView":4,"byteOffset":44360,"componentType":5123,"count":189,"type":"VEC4","name":"accessorJoints"},{"bufferView":2,"byteOffset":180464,"componentType":5126,"count":189,"type":"VEC4","name":"accessorWeights"},{"bufferView":0,"byteOffset":60720,"componentType":5123,"count":960,"type":"SCALAR","name":"accessorIndices"},{"bufferView":1,"byteOffset":137616,"componentType":5126,"count":189,"max":[0.0859122649,0.119719639,-0.0130373174],"min":[0.02577878,0.0264585353,-0.0330367573],"type":"VEC3","name":"accessorPositions"},{"bufferView":2,"byteOffset":183488,"componentType":5126,"count":189,"type":"VEC4","name":"accessorTangents"},{"bufferView":1,"byteOffset":139884,"componentType":5126,"count":189,"type":"VEC3","name":"accessorNormals"},{"bufferView":3,"byteOffset":45872,"componentType":5126,"count":189,"type":"VEC2","name":"accessorUVs"},{"bufferView":4,"byteOffset":45872,"componentType":5123,"count":189,"type":"VEC4","name":"accessorJoints"},{"bufferView":2,"byteOffset":186512,"componentType":5126,"count":189,"type":"VEC4","name":"accessorWeights"},{"bufferView":0,"byteOffset":62640,"componentType":5123,"count":74616,"type":"SCALAR","name":"accessorIndices"},{"bufferView":1,"byteOffset":142152,"componentType":5126,"count":13648,"max":[0.106228486,0.0375187621,0.009713722],"min":[0.0299637523,-0.000928403169,-0.03780358],"type":"VEC3","name":"accessorPositions"},{"bufferView":2,"byteOffset":189536,"componentType":5126,"count":13648,"type":"VEC4","name":"accessorTangents"},{"bufferView":1,"byteOffset":305928,"componentType":5126,"count":13648,"type":"VEC3","name":"accessorNormals"},{"bufferView":3,"byteOffset":47384,"componentType":5126,"count":13648,"type":"VEC2","name":"accessorUVs"},{"bufferView":4,"byteOffset":47384,"componentType":5123,"count":13648,"type":"VEC4","name":"accessorJoints"},{"bufferView":2,"byteOffset":407904,"componentType":5126,"count":13648,"type":"VEC4","name":"accessorWeights"},{"bufferView":0,"byteOffset":211872,"componentType":5123,"count":74616,"type":"SCALAR","name":"accessorIndices"},{"bufferView":1,"byteOffset":469704,"componentType":5126,"count":13648,"max":[-0.0180834644,0.03767286,0.004186696],"min":[-0.0981392339,-0.000834728242,-0.0325008],"type":"VEC3","name":"accessorPositions"},{"bufferView":2,"byteOffset":626272,"componentType":5126,"count":13648,"type":"VEC4","name":"accessorTangents"},{"bufferView":1,"byteOffset":633480,"componentType":5126,"count":13648,"type":"VEC3","name":"accessorNormals"},{"bufferView":3,"byteOffset":156568,"componentType":5126,"count":13648,"type":"VEC2","name":"accessorUVs"},{"bufferView":4,"byteOffset":156568,"componentType":5123,"count":13648,"type":"VEC4","name":"accessorJoints"},{"bufferView":2,"byteOffset":844640,"componentType":5126,"count":13648,"type":"VEC4","name":"accessorWeights"},{"bufferView":0,"byteOffset":361104,"componentType":5123,"count":600,"type":"SCALAR","name":"accessorIndices"},{"bufferView":1,"byteOffset":797256,"componentType":5126,"count":121,"max":[0.005,0.008197575,0.005],"min":[-0.005,-1.110223E-18,-0.004],"type":"VEC3","name":"accessorPositions"},{"bufferView":2,"byteOffset":1063008,"componentType":5126,"count":121,"type":"VEC4","name":"accessorTangents"},{"bufferView":1,"byteOffset":798708,"componentType":5126,"count":121,"type":"VEC3","name":"accessorNormals"},{"bufferView":3,"byteOffset":265752,"componentType":5126,"count":121,"type":"VEC2","name":"accessorUVs"},{"bufferView":5,"componentType":5126,"count":7,"type":"MAT4","name":"accessorInverseBindMatrices"},{"bufferView":5,"byteOffset":448,"componentType":5126,"count":6,"type":"MAT4","name":"accessorInverseBindMatrices"},{"bufferView":5,"byteOffset":832,"componentType":5126,"count":7,"type":"MAT4","name":"accessorInverseBindMatrices"},{"bufferView":5,"byteOffset":1280,"componentType":5126,"count":9,"type":"MAT4","name":"accessorInverseBindMatrices"},{"bufferView":5,"byteOffset":1856,"componentType":5126,"count":9,"type":"MAT4","name":"accessorInverseBindMatrices"},{"bufferView":5,"byteOffset":2432,"componentType":5126,"count":6,"type":"MAT4","name":"accessorInverseBindMatrices"},{"bufferView":5,"byteOffset":2816,"componentType":5126,"count":6,"type":"MAT4","name":"accessorInverseBindMatrices"},{"bufferView":6,"componentType":5126,"count":2,"max":[2.0],"min":[0.0],"type":"SCALAR","name":"accessorAnimationInput"},{"bufferView":7,"componentType":5126,"count":2,"type":"VEC3","name":"accessorAnimationScales"},{"bufferView":6,"byteOffset":8,"componentType":5126,"count":2,"max":[2.0],"min":[0.0],"type":"SCALAR","name":"accessorAnimationInput"},{"bufferView":7,"byteOffset":24,"componentType":5126,"count":2,"type":"VEC3","name":"accessorAnimationPositions"},{"bufferView":6,"byteOffset":16,"componentType":5126,"count":61,"max":[2.0],"min":[0.0],"type":"SCALAR","name":"accessorAnimationInput"},{"bufferView":7,"byteOffset":48,"componentType":5126,"count":61,"type":"VEC3","name":"accessorAnimationPositions"},{"bufferView":8,"componentType":5126,"count":61,"type":"VEC4","name":"accessorAnimationRotations"},{"bufferView":7,"byteOffset":780,"componentType":5126,"count":61,"type":"VEC3","name":"accessorAnimationScales"},{"bufferView":6,"byteOffset":260,"componentType":5126,"count":61,"max":[2.0],"min":[0.0],"type":"SCALAR","name":"accessorAnimationInput"},{"bufferView":7,"byteOffset":1512,"componentType":5126,"count":61,"type":"VEC3","name":"accessorAnimationPositions"},{"bufferView":8,"byteOffset":976,"componentType":5126,"count":61,"type":"VEC4","name":"accessorAnimationRotations"},{"bufferView":7,"byteOffset":2244,"componentType":5126,"count":61,"type":"VEC3","name":"accessorAnimationScales"},{"bufferView":6,"byteOffset":504,"componentType":5126,"count":61,"max":[2.0],"min":[0.0],"type":"SCALAR","name":"accessorAnimationInput"},{"bufferView":7,"byteOffset":2976,"componentType":5126,"count":61,"type":"VEC3","name":"accessorAnimationPositions"},{"bufferView":8,"byteOffset":1952,"componentType":5126,"count":61,"type":"VEC4","name":"accessorAnimationRotations"},{"bufferView":7,"byteOffset":3708,"componentType":5126,"count":61,"type":"VEC3","name":"accessorAnimationScales"},{"bufferView":6,"byteOffset":748,"componentType":5126,"count":61,"max":[2.0],"min":[0.0],"type":"SCALAR","name":"accessorAnimationInput"},{"bufferView":7,"byteOffset":4440,"componentType":5126,"count":61,"type":"VEC3","name":"accessorAnimationPositions"},{"bufferView":8,"byteOffset":2928,"componentType":5126,"count":61,"type":"VEC4","name":"accessorAnimationRotations"},{"bufferView":7,"byteOffset":5172,"componentType":5126,"count":61,"type":"VEC3","name":"accessorAnimationScales"},{"bufferView":6,"byteOffset":992,"componentType":5126,"count":12,"max":[2.0],"min":[0.0],"type":"SCALAR","name":"accessorAnimationInput"},{"bufferView":7,"byteOffset":5904,"componentType":5126,"count":12,"type":"VEC3","name":"accessorAnimationPositions"},{"bufferView":8,"byteOffset":3904,"componentType":5126,"count":12,"type":"VEC4","name":"accessorAnimationRotations"},{"bufferView":7,"byteOffset":6048,"componentType":5126,"count":12,"type":"VEC3","name":"accessorAnimationScales"},{"bufferView":6,"byteOffset":1040,"componentType":5126,"count":2,"max":[2.0],"min":[0.0],"type":"SCALAR","name":"accessorAnimationInput"},{"bufferView":7,"byteOffset":6192,"componentType":5126,"count":2,"type":"VEC3","name":"accessorAnimationPositions"},{"bufferView":8,"byteOffset":4096,"componentType":5126,"count":2,"type":"VEC4","name":"accessorAnimationRotations"},{"bufferView":7,"byteOffset":6216,"componentType":5126,"count":2,"type":"VEC3","name":"accessorAnimationScales"},{"bufferView":6,"byteOffset":1048,"componentType":5126,"count":61,"max":[2.0],"min":[0.0],"type":"SCALAR","name":"accessorAnimationInput"},{"bufferView":7,"byteOffset":6240,"componentType":5126,"count":61,"type":"VEC3","name":"accessorAnimationPositions"},{"bufferView":8,"byteOffset":4128,"componentType":5126,"count":61,"type":"VEC4","name":"accessorAnimationRotations"},{"bufferView":7,"byteOffset":6972,"componentType":5126,"count":61,"type":"VEC3","name":"accessorAnimationScales"},{"bufferView":6,"byteOffset":1292,"componentType":5126,"count":61,"max":[2.0],"min":[0.0],"type":"SCALAR","name":"accessorAnimationInput"},{"bufferView":7,"byteOffset":7704,"componentType":5126,"count":61,"type":"VEC3","name":"accessorAnimationPositions"},{"bufferView":8,"byteOffset":5104,"componentType":5126,"count":61,"type":"VEC4","name":"accessorAnimationRotations"},{"bufferView":7,"byteOffset":8436,"componentType":5126,"count":61,"type":"VEC3","name":"accessorAnimationScales"},{"bufferView":6,"byteOffset":1536,"componentType":5126,"count":61,"max":[2.0],"min":[0.0],"type":"SCALAR","name":"accessorAnimationInput"},{"bufferView":7,"byteOffset":9168,"componentType":5126,"count":61,"type":"VEC3","name":"accessorAnimationPositions"},{"bufferView":8,"byteOffset":6080,"componentType":5126,"count":61,"type":"VEC4","name":"accessorAnimationRotations"},{"bufferView":7,"byteOffset":9900,"componentType":5126,"count":61,"type":"VEC3","name":"accessorAnimationScales"},{"bufferView":6,"byteOffset":1780,"componentType":5126,"count":61,"max":[2.0],"min":[0.0],"type":"SCALAR","name":"accessorAnimationInput"},{"bufferView":7,"byteOffset":10632,"componentType":5126,"count":61,"type":"VEC3","name":"accessorAnimationPositions"},{"bufferView":8,"byteOffset":7056,"componentType":5126,"count":61,"type":"VEC4","name":"accessorAnimationRotations"},{"bufferView":7,"byteOffset":11364,"componentType":5126,"count":61,"type":"VEC3","name":"accessorAnimationScales"},{"bufferView":6,"byteOffset":2024,"componentType":5126,"count":17,"max":[2.0],"min":[0.0],"type":"SCALAR","name":"accessorAnimationInput"},{"bufferView":7,"byteOffset":12096,"componentType":5126,"count":17,"type":"VEC3","name":"accessorAnimationPositions"},{"bufferView":8,"byteOffset":8032,"componentType":5126,"count":17,"type":"VEC4","name":"accessorAnimationRotations"},{"bufferView":7,"byteOffset":12300,"componentType":5126,"count":17,"type":"VEC3","name":"accessorAnimationScales"},{"bufferView":6,"byteOffset":2092,"componentType":5126,"count":2,"max":[2.0],"min":[0.0],"type":"SCALAR","name":"accessorAnimationInput"},{"bufferView":7,"byteOffset":12504,"componentType":5126,"count":2,"type":"VEC3","name":"accessorAnimationPositions"},{"bufferView":8,"byteOffset":8304,"componentType":5126,"count":2,"type":"VEC4","name":"accessorAnimationRotations"},{"bufferView":7,"byteOffset":12528,"componentType":5126,"count":2,"type":"VEC3","name":"accessorAnimationScales"},{"bufferView":6,"byteOffset":2100,"componentType":5126,"count":61,"max":[2.0],"min":[0.0],"type":"SCALAR","name":"accessorAnimationInput"},{"bufferView":7,"byteOffset":12552,"componentType":5126,"count":61,"type":"VEC3","name":"accessorAnimationPositions"},{"bufferView":8,"byteOffset":8336,"componentType":5126,"count":61,"type":"VEC4","name":"accessorAnimationRotations"},{"bufferView":7,"byteOffset":13284,"componentType":5126,"count":61,"type":"VEC3","name":"accessorAnimationScales"}],"bufferViews":[{"buffer":0,"byteLength":362304,"name":"bufferViewScalar"},{"buffer":0,"byteOffset":362304,"byteLength":800160,"byteStride":12,"name":"bufferViewFloatVec3"},{"buffer":0,"byteOffset":1162464,"byteLength":1064944,"byteStride":16,"name":"bufferViewFloatVec4"},{"buffer":0,"byteOffset":2227408,"byteLength":266720,"byteStride":8,"name":"bufferViewFloatVec2"},{"buffer":0,"byteOffset":2494128,"byteLength":265752,"byteStride":8,"name":"bufferViewUnsignedShortVec4"},{"buffer":0,"byteOffset":2759880,"byteLength":3200,"name":"bufferViewFloatMat4"},{"buffer":0,"byteOffset":2763080,"byteLength":2344,"name":"bufferViewAnimationFloatScalar"},{"buffer":0,"byteOffset":2765424,"byteLength":14016,"name":"bufferViewAnimationFloatVec3"},{"buffer":0,"byteOffset":2779440,"byteLength":9312,"name":"bufferViewAnimationFloatVec4"}],"buffers":[{"uri":"pernas_cocacola.bin","byteLength":2788752}],"materials":[{"pbrMetallicRoughness":{"baseColorTexture":{"index":1},"metallicFactor":0.0,"roughnessFactor":0.2581639},"normalTexture":{"index":0},"name":"perna_mtl"},{"pbrMetallicRoughness":{"metallicFactor":0.0,"roughnessFactor":0.2581639},"name":"tenis_mtl"},{"pbrMetallicRoughness":{"metallicFactor":0.0,"roughnessFactor":0.255290627},"emissiveFactor":[1.0,1.0,1.0],"name":"chao"}],"textures":[{"sampler":0,"source":0,"name":"pernas_texturizar3_perna_mtl_Normal.png"},{"sampler":0,"source":1,"name":"pernas_texturizar3_perna_mtl_BaseColor.png"}],"images":[{"uri":"pernas_texturizar3_perna_mtl_Normal.png"},{"uri":"pernas_texturizar3_perna_mtl_BaseColor.png"}],"samplers":[{"magFilter":9729,"minFilter":9987}],"animations":[{"channels":[{"sampler":0,"target":{"node":7,"path":"scale"}},{"sampler":1,"target":{"node":7,"path":"translation"}},{"sampler":2,"target":{"node":8,"path":"translation"}},{"sampler":3,"target":{"node":8,"path":"rotation"}},{"sampler":4,"target":{"node":8,"path":"scale"}},{"sampler":5,"target":{"node":9,"path":"translation"}},{"sampler":6,"target":{"node":9,"path":"rotation"}},{"sampler":7,"target":{"node":9,"path":"scale"}},{"sampler":8,"target":{"node":10,"path":"translation"}},{"sampler":9,"target":{"node":10,"path":"rotation"}},{"sampler":10,"target":{"node":10,"path":"scale"}},{"sampler":11,"target":{"node":11,"path":"translation"}},{"sampler":12,"target":{"node":11,"path":"rotation"}},{"sampler":13,"target":{"node":11,"path":"scale"}},{"sampler":14,"target":{"node":12,"path":"translation"}},{"sampler":15,"target":{"node":12,"path":"rotation"}},{"sampler":16,"target":{"node":12,"path":"scale"}},{"sampler":17,"target":{"node":13,"path":"translation"}},{"sampler":18,"target":{"node":13,"path":"rotation"}},{"sampler":19,"target":{"node":13,"path":"scale"}},{"sampler":20,"target":{"node":14,"path":"translation"}},{"sampler":21,"target":{"node":14,"path":"rotation"}},{"sampler":22,"target":{"node":14,"path":"scale"}},{"sampler":23,"target":{"node":15,"path":"translation"}},{"sampler":24,"target":{"node":15,"path":"rotation"}},{"sampler":25,"target":{"node":15,"path":"scale"}},{"sampler":26,"target":{"node":16,"path":"translation"}},{"sampler":27,"target":{"node":16,"path":"rotation"}},{"sampler":28,"target":{"node":16,"path":"scale"}},{"sampler":29,"target":{"node":17,"path":"translation"}},{"sampler":30,"target":{"node":17,"path":"rotation"}},{"sampler":31,"target":{"node":17,"path":"scale"}},{"sampler":32,"target":{"node":18,"path":"translation"}},{"sampler":33,"target":{"node":18,"path":"rotation"}},{"sampler":34,"target":{"node":18,"path":"scale"}},{"sampler":35,"target":{"node":19,"path":"translation"}},{"sampler":36,"target":{"node":19,"path":"rotation"}},{"sampler":37,"target":{"node":19,"path":"scale"}},{"sampler":38,"target":{"node":20,"path":"translation"}},{"sampler":39,"target":{"node":20,"path":"rotation"}},{"sampler":40,"target":{"node":20,"path":"scale"}}],"samplers":[{"input":61,"interpolation":0,"output":62},{"input":63,"interpolation":0,"output":64},{"input":65,"interpolation":0,"output":66},{"input":65,"interpolation":0,"output":67},{"input":65,"interpolation":0,"output":68},{"input":69,"interpolation":0,"output":70},{"input":69,"interpolation":0,"output":71},{"input":69,"interpolation":0,"output":72},{"input":73,"interpolation":0,"output":74},{"input":73,"interpolation":0,"output":75},{"input":73,"interpolation":0,"output":76},{"input":77,"interpolation":0,"output":78},{"input":77,"interpolation":0,"output":79},{"input":77,"interpolation":0,"output":80},{"input":81,"interpolation":0,"output":82},{"input":81,"interpolation":0,"output":83},{"input":81,"interpolation":0,"output":84},{"input":85,"interpolation":0,"output":86},{"input":85,"interpolation":0,"output":87},{"input":85,"interpolation":0,"output":88},{"input":89,"interpolation":0,"output":90},{"input":89,"interpolation":0,"output":91},{"input":89,"interpolation":0,"output":92},{"input":93,"interpolation":0,"output":94},{"input":93,"interpolation":0,"output":95},{"input":93,"interpolation":0,"output":96},{"input":97,"interpolation":0,"output":98},{"input":97,"interpolation":0,"output":99},{"input":97,"interpolation":0,"output":100},{"input":101,"interpolation":0,"output":102},{"input":101,"interpolation":0,"output":103},{"input":101,"interpolation":0,"output":104},{"input":105,"interpolation":0,"output":106},{"input":105,"interpolation":0,"output":107},{"input":105,"interpolation":0,"output":108},{"input":109,"interpolation":0,"output":110},{"input":109,"interpolation":0,"output":111},{"input":109,"interpolation":0,"output":112},{"input":113,"interpolation":0,"output":114},{"input":113,"interpolation":0,"output":115},{"input":113,"interpolation":0,"output":116}],"name":"All Animations"}],"skins":[{"inverseBindMatrices":54,"skeleton":8,"joints":[8,9,10,11,12,13,14],"name":"skeleton #0"},{"inverseBindMatrices":55,"skeleton":8,"joints":[8,15,16,17,18,19],"name":"skeleton #1"},{"inverseBindMatrices":56,"skeleton":8,"joints":[8,9,10,14,15,16,20],"name":"skeleton #2"},{"inverseBindMatrices":57,"skeleton":8,"joints":[8,9,10,15,16,17,18,19,20],"name":"skeleton #3"},{"inverseBindMatrices":58,"skeleton":8,"joints":[8,9,10,11,12,13,14,15,16],"name":"skeleton #4"},{"inverseBindMatrices":59,"skeleton":8,"joints":[8,9,10,11,12,13],"name":"skeleton #5"},{"inverseBindMatrices":60,"skeleton":8,"joints":[8,15,16,17,18,19],"name":"skeleton #1_1"}]}